<?xml version="1.0" encoding="utf-8"?>
<!-- Generator: Adobe Illustrator 20.1.0, SVG Export Plug-In . SVG Version: 6.00 Build 0)  -->
<svg version="1.1" id="Layer_1" xmlns="http://www.w3.org/2000/svg" xmlns:xlink="http://www.w3.org/1999/xlink" x="0px" y="0px"
	 viewBox="0 0 320 216" style="enable-background:new 0 0 320 216;" xml:space="preserve">
<style type="text/css">
	.st0{fill:#FFFFFF;}
</style>
<g>
	<g>
		<rect x="169.9" y="7.7" class="st0" width="137.2" height="137.2"/>
		<path d="M306.8,7.9v136.8H170.1V7.9L306.8,7.9 M307.3,7.4H169.6v137.6h137.6V7.4L307.3,7.4z"/>
	</g>
	<g>
		<rect x="169.9" y="7.7" class="st0" width="96.6" height="96.6"/>
		<path d="M266.2,7.9V104h-96.2V7.9H266.2 M266.7,7.4h-97v97h97V7.4L266.7,7.4z"/>
	</g>
	<g>
		<rect x="210.5" y="48.3" class="st0" width="96.6" height="96.6"/>
		<path d="M306.8,48.5v96.2h-96.2V48.5H306.8 M307.3,48h-97v97h97L307.3,48L307.3,48z"/>
	</g>
	<g>
		<rect x="7.5" y="176.6" class="st0" width="34" height="34"/>
		<path d="M41.3,176.8v33.6H7.7v-33.6H41.3 M41.7,176.4H7.3v34.4h34.4V176.4L41.7,176.4z"/>
	</g>
	<g>
		<rect x="57.3" y="96.8" class="st0" width="96.6" height="96.6"/>
		<path d="M153.7,97v96.2H57.6V97H153.7 M154.2,96.5h-97v97h97L154.2,96.5L154.2,96.5z"/>
	</g>
	<g>
		<path d="M169.6,193.6v-42.2h15.2c3.3,0,6.2,1.1,8.6,3.3c2.4,2.1,3.6,4.9,3.6,8.2c0,4.2-1.9,7.1-5.7,8.8v0.2
			c2.1,0.7,3.9,1.9,5.2,3.7c1.3,1.7,2,3.8,2,6c0,3.5-1.3,6.3-3.8,8.6c-2.4,2.3-5.5,3.4-9,3.4L169.6,193.6L169.6,193.6z M175,156.6
			v12.9h9.8c1.9,0,3.5-0.7,4.8-2c1.3-1.4,2-2.8,2-4.5c0-1.7-0.6-3.1-1.9-4.5c-1.3-1.3-2.8-2-4.7-2L175,156.6L175,156.6z M175,174.6
			v13.9h10.9c2,0,3.6-0.7,5-2.1c1.4-1.4,2-3,2-4.9c0-1.8-0.7-3.5-2.1-4.8c-1.4-1.4-3.1-2.1-5.2-2.1L175,174.6L175,174.6z"/>
		<path d="M209.1,151.4v42.2h-5.4v-42.2H209.1z"/>
		<path d="M213.7,179.2c0-4.5,1.4-8.1,4.2-11c2.8-2.9,6.4-4.4,10.7-4.4c4.3,0,7.8,1.4,10.6,4.4c2.8,2.9,4.2,6.6,4.2,11
			c0,4.5-1.4,8.2-4.2,11c-2.8,2.9-6.3,4.4-10.6,4.4s-7.8-1.4-10.7-4.4C215.1,187.3,213.7,183.6,213.7,179.2z M219.1,179.2
			c0,3.1,0.9,5.6,2.7,7.6c1.8,1.9,4.1,2.9,6.7,2.9c2.7,0,4.9-1,6.7-2.9c1.8-1.9,2.7-4.5,2.7-7.6c0-3.1-0.9-5.5-2.7-7.5
			c-1.8-2-4.1-2.9-6.7-2.9s-4.9,1-6.7,2.9C220.1,173.6,219.1,176.1,219.1,179.2z"/>
		<path d="M261.5,178.9l10.3,14.7h-6.4l-7.1-10.7l-7,10.7H245l10.2-14.7l-10-14.2h6.1l7.1,10.2l6.8-10.2h6.4L261.5,178.9z"/>
		<path d="M273.1,179.2c0-4.5,1.4-8.1,4.2-11c2.8-2.9,6.4-4.4,10.7-4.4c4.3,0,7.8,1.4,10.6,4.4c2.8,2.9,4.2,6.6,4.2,11
			c0,4.5-1.4,8.2-4.2,11c-2.8,2.9-6.3,4.4-10.6,4.4c-4.3,0-7.8-1.4-10.7-4.4C274.5,187.3,273.1,183.6,273.1,179.2z M278.5,179.2
			c0,3.1,0.9,5.6,2.7,7.6c1.8,1.9,4.1,2.9,6.7,2.9c2.7,0,4.9-1,6.7-2.9c1.8-1.9,2.7-4.5,2.7-7.6c0-3.1-0.9-5.5-2.7-7.5
			c-1.8-2-4.1-2.9-6.7-2.9s-4.9,1-6.7,2.9C279.4,173.6,278.5,176.1,278.5,179.2z"/>
	</g>
</g>
</svg>
